<svg xmlns="http://www.w3.org/2000/svg" width="520" height="525" viewBox="0 0 520 525" version="1.1"><path d="M 322.079 1.589 C 304.372 8.003, 291.837 26.093, 280.220 62 C 272.237 86.674, 266.695 111.890, 246.483 215.500 C 236.629 266.011, 234.037 274.775, 227.871 278.417 C 224.343 280.501, 222.183 280.409, 218.241 278.005 C 210.612 273.354, 208.660 266.736, 194.939 199 C 178.632 118.496, 172.891 93.556, 164.344 66.101 C 158.712 48.008, 150.285 26.120, 146.952 20.925 C 142.732 14.349, 135.923 8.319, 129.175 5.184 C 121.497 1.616, 108.513 1.441, 99.500 4.783 C 93.830 6.887, 80 15.456, 80 16.867 C 80 17.226, 78.958 18.644, 77.684 20.018 C 70.388 27.887, 57.043 61.342, 48.174 94 C 43.089 112.721, 36.527 147.344, 34.477 166.268 C 33.231 177.761, 39.206 187.387, 49.625 190.671 C 60.798 194.193, 72.110 188.064, 75.525 176.638 C 76.369 173.812, 79.775 157.325, 83.093 140 C 88.789 110.261, 95.571 78.383, 98.091 69.500 C 99.621 64.110, 103.351 56.891, 105.708 54.762 C 106.766 53.806, 108.999 52.750, 110.671 52.416 C 113.145 51.921, 114.381 52.396, 117.306 54.964 C 122.299 59.348, 124.115 64.895, 129.988 93.693 C 135.201 119.256, 139.025 137.657, 141.482 149 C 142.256 152.575, 144.013 160.675, 145.385 167 C 146.757 173.325, 149.227 184.800, 150.874 192.500 C 163.937 253.567, 169.915 277.544, 175.628 291.797 C 180.488 303.921, 189.524 319.576, 194.577 324.630 C 210.337 340.390, 235.935 338.477, 253.120 320.254 C 261.339 311.539, 265.633 303.217, 272.374 282.941 C 280.676 257.970, 284.869 239.859, 300.602 161 C 319.719 65.178, 321.827 57.209, 329.047 53.476 C 332.638 51.619, 333.420 51.631, 337.590 53.610 C 345.046 57.148, 349.123 70.611, 361.478 132.500 C 362.796 139.100, 366.401 156.650, 369.490 171.500 C 372.579 186.350, 375.738 201.650, 376.510 205.500 C 377.811 211.982, 381.893 231.332, 387.058 255.500 C 391.675 277.100, 400.895 300.598, 410.011 314 C 414.370 320.407, 423.193 329.014, 427.894 331.445 C 429.697 332.378, 434.103 333.754, 437.684 334.503 C 455.001 338.126, 475.922 327.245, 487.393 308.651 C 496.655 293.637, 502.555 273.162, 513.006 219.771 C 522.385 171.859, 522.369 164.249, 512.872 155.335 C 505.034 147.977, 491.302 148.879, 483.733 157.250 C 480.035 161.340, 479.325 164.253, 471.013 209.500 C 459.132 274.165, 459.146 274.111, 452.710 278.035 C 444.139 283.261, 435.375 277.625, 431.521 264.409 C 430.705 261.609, 424.835 233.484, 418.477 201.909 C 400.946 114.848, 394.767 88.609, 384.433 57.342 C 372.117 20.080, 365.375 8.693, 352.103 2.737 C 345.825 -0.080, 328.515 -0.742, 322.079 1.589 M 15.500 284.358 C 5.959 288.821, 0.898 296.234, 0.186 306.793 C -0.350 314.742, 1.812 320.748, 7.406 326.846 C 14.940 335.060, 25.740 337.417, 35.694 333.020 C 54.038 324.918, 57.702 301.590, 42.703 288.388 C 34.971 281.581, 24.692 280.059, 15.500 284.358 M 194.643 413.272 C 193.036 414.447, 192.926 417.264, 193.201 450.022 C 193.483 483.514, 193.613 485.696, 195.523 489 C 198.471 494.101, 204.808 497, 213.012 497 C 219.990 497, 222 495.994, 222 492.500 C 222 489.429, 220.079 488, 215.949 488 C 211.060 488, 206.179 486.203, 204.979 483.961 C 204.441 482.955, 204 474.452, 204 465.066 L 204 448 211.066 448 C 218.897 448, 222 446.878, 222 444.047 C 222 439.424, 221.193 439, 212.393 439 L 204 439 204 427.071 C 204 417.561, 203.681 414.824, 202.429 413.571 C 200.530 411.673, 197.014 411.538, 194.643 413.272 M 506.655 413.829 C 501.191 419.867, 510.230 427.770, 516 422 C 518.403 419.597, 518.538 417.214, 516.443 414.223 C 514.481 411.421, 509.033 411.201, 506.655 413.829 M 25.160 439.361 C 23.323 440.026, 20.785 441.567, 19.519 442.785 C 16.729 445.471, 16 445.556, 16 443.200 C 16 440.760, 14.065 439, 11.382 439 C 5.801 439, 6 437.928, 6 468 C 6 492.415, 6.192 495.860, 7.582 496.393 C 10.191 497.394, 13.688 497.081, 14.795 495.747 C 15.400 495.018, 15.986 486.769, 16.196 475.997 C 16.602 455.281, 17.084 453.445, 22.989 450.126 C 27.766 447.442, 31.349 447.434, 35.663 450.101 C 42.071 454.061, 43 457.575, 43 477.853 C 43 493.283, 43.221 495.871, 44.582 496.393 C 47.938 497.681, 50.977 496.964, 52.589 494.505 C 53.989 492.368, 54.165 489.466, 53.816 474.255 C 53.348 453.885, 52.305 450.189, 45.231 443.817 C 39.194 438.379, 32.177 436.821, 25.160 439.361 M 84.885 439.319 C 77.869 441.944, 72.064 447.210, 69.548 453.232 C 67.662 457.746, 67.419 476.328, 69.170 482.172 C 70.861 487.818, 78.082 494.650, 84.314 496.500 C 92.106 498.814, 101.511 498.441, 107.670 495.573 C 114.066 492.595, 115.809 489.884, 113.548 486.433 C 111.579 483.428, 111.425 483.429, 104.849 486.490 C 98.502 489.445, 93.003 489.639, 87.421 487.104 C 81.708 484.509, 79 480.734, 79 475.365 L 79 471 95.045 471 C 110.748 471, 111.143 470.948, 113.545 468.545 C 117.665 464.426, 116.620 454.401, 111.328 447.272 C 105.961 440.042, 93.205 436.205, 84.885 439.319 M 149.637 439.465 C 147.513 440.222, 144.475 442.087, 142.887 443.608 L 140 446.374 140 443.206 C 140 440.637, 139.514 439.916, 137.426 439.392 C 136.011 439.037, 133.761 439.244, 132.426 439.852 L 130 440.957 130 481.044 C 130 506.765, 130.371 521.825, 131.035 523.066 C 132.175 525.195, 135.972 525.620, 139.066 523.965 C 140.854 523.008, 141 521.725, 141 506.918 L 141 490.906 145.001 494.121 C 148.094 496.607, 150.223 497.437, 154.388 497.782 C 161.324 498.357, 165.858 496.811, 170.525 492.279 C 176.753 486.230, 178.418 481.242, 178.462 468.500 C 178.508 455.066, 176.849 449.959, 170.552 444.155 C 164.181 438.282, 157.290 436.737, 149.637 439.465 M 318.637 439.412 C 316.513 440.198, 313.510 442.053, 311.965 443.534 L 309.155 446.226 308.827 443.464 C 308.390 439.777, 305.910 438.294, 302.303 439.562 L 299.500 440.547 299.233 467.401 C 299.045 486.376, 299.301 494.658, 300.106 495.628 C 301.544 497.360, 305.956 497.349, 308.250 495.608 C 309.801 494.431, 310 492.265, 310 476.608 C 310 463.947, 310.387 458.010, 311.364 455.672 C 315.326 446.190, 329.340 445.865, 334.074 455.146 C 335.762 458.454, 336 461.123, 336 476.760 C 336 496.183, 336.222 497, 341.500 497 C 346.785 497, 347 496.199, 346.994 476.550 C 346.988 456.464, 346.359 452.927, 341.710 446.863 C 336.149 439.609, 326.512 436.497, 318.637 439.412 M 379.120 439.153 C 366.786 442.700, 361 451.912, 361 468.003 C 361 482.403, 364.879 490.279, 374.381 495.175 C 386.524 501.431, 409.761 496.151, 407.620 487.622 C 406.727 484.063, 403.635 483.444, 399.503 485.998 C 394.323 489.200, 386.402 489.714, 380.755 487.216 C 375.285 484.796, 372.929 481.548, 372.245 475.486 L 371.740 471 388.179 471 C 406.631 471, 407.602 470.698, 408.992 464.534 C 412.534 448.829, 395.576 434.420, 379.120 439.153 M 456.158 439.910 C 449.310 442.275, 447.682 443.887, 448.570 447.425 C 449.480 451.047, 451.180 451.545, 456.022 449.608 C 461.193 447.539, 469.862 447.515, 472.783 449.561 C 475.525 451.481, 477.815 455.765, 478.541 460.334 L 479.089 463.781 469.794 464.502 C 458.798 465.356, 452.523 467.233, 448.734 470.800 C 443.640 475.597, 442.944 484.684, 447.137 491.644 C 452.076 499.840, 466.611 500.247, 475.879 492.448 L 479 489.822 479 492.211 C 479 495.306, 480.761 497.004, 483.950 496.985 C 489.446 496.952, 489.506 496.715, 489.429 475.283 C 489.350 453.529, 488.890 451.361, 482.908 444.548 C 477.448 438.329, 466.321 436.400, 456.158 439.910 M 235.750 440.080 C 234.178 440.996, 234.002 443.055, 234.022 460.300 C 234.047 481.760, 234.685 484.531, 241.077 490.923 C 253.223 503.069, 273.843 498.960, 280.837 483 C 281.960 480.438, 282.485 474.743, 282.797 461.745 C 283.163 446.513, 282.991 443.635, 281.589 441.495 C 279.804 438.772, 276.390 438.229, 273.748 440.250 C 272.362 441.310, 272.062 444.318, 271.777 460 C 271.552 472.401, 271.021 479.330, 270.166 481.018 C 266.913 487.439, 257.641 489.907, 251.299 486.040 C 245.596 482.563, 245 480.120, 245 460.205 C 245 444.139, 244.813 442.141, 243.171 440.655 C 241.107 438.787, 238.338 438.573, 235.750 440.080 M 507.750 440.080 C 506.152 441.011, 506 443.428, 506 467.850 C 506 487.322, 506.326 494.926, 507.200 495.800 C 508.779 497.379, 513.051 497.277, 515.250 495.608 C 516.838 494.403, 517 491.865, 517 468.211 C 517 445.846, 516.777 441.920, 515.429 440.571 C 513.644 438.787, 510.334 438.575, 507.750 440.080 M 85.299 448.960 C 81.394 451.340, 79 455.708, 79 460.450 L 79 464 91.300 464 C 106.787 464, 108.451 462.725, 104.098 454.192 C 100.726 447.582, 91.685 445.065, 85.299 448.960 M 379.085 448.752 C 375.120 450.782, 372 456.058, 372 460.734 L 372 464 383.918 464 C 390.473 464, 396.548 463.727, 397.418 463.393 C 399.602 462.555, 399.440 457.233, 397.114 453.420 C 394.993 449.941, 389.600 446.999, 385.349 447.002 C 383.782 447.002, 380.963 447.790, 379.085 448.752 M 148.121 449.710 C 142.273 452.591, 141.008 455.952, 141.004 468.615 C 141 478.376, 141.254 480.054, 143.088 482.385 C 145.966 486.043, 150.134 488, 155.050 488 C 163.532 488, 168.632 478.953, 167.772 465.428 C 166.889 451.519, 158.336 444.678, 148.121 449.710 M 468 471.763 C 461.655 472.429, 457.985 474.127, 456.442 477.111 C 453.198 483.386, 456.993 489.003, 464.473 488.996 C 471.876 488.989, 478.988 482.307, 478.996 475.351 C 479 472.367, 478.777 472.183, 474.750 471.851 C 472.413 471.658, 469.375 471.618, 468 471.763 M 423.657 486.055 C 420.411 488.608, 420.114 493.114, 423 496 C 428.816 501.816, 437.634 493.425, 432.250 487.198 C 429.538 484.061, 426.676 483.680, 423.657 486.055" stroke="none" fill="#151928" fill-rule="evenodd"/><path d="" stroke="none" fill="#141c24" fill-rule="evenodd"/><path d="" stroke="none" fill="#141c2c" fill-rule="evenodd"/></svg>